<svg width="68" height="61" viewBox="0 0 68 61" fill="none" xmlns="http://www.w3.org/2000/svg">
<g clip-path="url(#clip0_515_4538)">
<path d="M53.1329 11.8212C53.8761 11.823 54.5883 12.1194 55.1132 12.6456C55.6381 13.1717 55.9329 13.8846 55.9329 14.6278V32.06L55.8999 51.785L52.3226 56.6207L30.6278 58.8211H24.4744C24.1067 58.8211 23.7426 58.7487 23.4029 58.608C23.0632 58.4673 22.7546 58.261 22.4946 58.001C22.2346 57.741 22.0283 57.4324 21.8876 57.0926C21.7469 56.7529 21.6745 56.3888 21.6745 56.0211V14.6278C21.6722 14.1858 21.7762 13.7497 21.9775 13.3563C22.2107 12.8942 22.5676 12.506 23.0085 12.235C23.4494 11.9639 23.9569 11.8207 24.4744 11.8212H53.1329ZM53.1329 10.5036H24.4744C23.7136 10.5038 22.9677 10.7151 22.3198 11.1141C21.6719 11.513 21.1475 12.084 20.8048 12.7633C20.508 13.3398 20.3543 13.9793 20.3568 14.6278V56.0211C20.3586 57.1127 20.793 58.159 21.5648 58.9308C22.3366 59.7026 23.3829 60.137 24.4744 60.1387H30.6871L53.0275 57.8724L57.211 52.2198L57.2439 32.06V14.6278C57.2439 13.5363 56.8112 12.4893 56.0406 11.7162C55.27 10.9431 54.2244 10.5071 53.1329 10.5036Z" fill="#828282"/>
<path d="M52.5401 16.4526H26.0887C25.5356 16.4526 25.0873 16.901 25.0873 17.454C25.0873 18.0071 25.5356 18.4554 26.0887 18.4554H52.5401C53.0932 18.4554 53.5415 18.0071 53.5415 17.454C53.5415 16.901 53.0932 16.4526 52.5401 16.4526Z" fill="#828282"/>
<path d="M52.5401 21.5518H26.0887C25.5356 21.5518 25.0873 22.0002 25.0873 22.5532C25.0873 23.1063 25.5356 23.5546 26.0887 23.5546H52.5401C53.0932 23.5546 53.5415 23.1063 53.5415 22.5532C53.5415 22.0002 53.0932 21.5518 52.5401 21.5518Z" fill="#828282"/>
<path d="M52.5401 26.6445H26.0887C25.5356 26.6445 25.0873 27.0928 25.0873 27.6459C25.0873 28.1989 25.5356 28.6473 26.0887 28.6473H52.5401C53.0932 28.6473 53.5415 28.1989 53.5415 27.6459C53.5415 27.0928 53.0932 26.6445 52.5401 26.6445Z" fill="#828282"/>
<path d="M52.5401 31.7438H26.0887C25.5356 31.7438 25.0873 32.1921 25.0873 32.7452C25.0873 33.2982 25.5356 33.7466 26.0887 33.7466H52.5401C53.0932 33.7466 53.5415 33.2982 53.5415 32.7452C53.5415 32.1921 53.0932 31.7438 52.5401 31.7438Z" fill="#828282"/>
<path d="M44.9967 36.8165H26.0887C25.5356 36.8165 25.0873 37.2649 25.0873 37.8179C25.0873 38.371 25.5356 38.8193 26.0887 38.8193H44.9967C45.5497 38.8193 45.9981 38.371 45.9981 37.8179C45.9981 37.2649 45.5497 36.8165 44.9967 36.8165Z" fill="#828282"/>
<path d="M37.1502 41.9026H26.0887C25.5356 41.9026 25.0873 42.3509 25.0873 42.904C25.0873 43.457 25.5356 43.9054 26.0887 43.9054H37.1502C37.7032 43.9054 38.1516 43.457 38.1516 42.904C38.1516 42.3509 37.7032 41.9026 37.1502 41.9026Z" fill="#828282"/>
<path d="M30.6213 46.9691H26.0887C25.5356 46.9691 25.0873 47.4174 25.0873 47.9705C25.0873 48.5235 25.5356 48.9719 26.0887 48.9719H30.6213C31.1744 48.9719 31.6227 48.5235 31.6227 47.9705C31.6227 47.4174 31.1744 46.9691 30.6213 46.9691Z" fill="#828282"/>
<path d="M57.2375 32.0599V56.0144C57.2384 56.5551 57.1327 57.0907 56.9266 57.5906C56.7205 58.0905 56.4179 58.5449 56.0362 58.9279C55.6544 59.3109 55.201 59.6149 54.7017 59.8226C54.2025 60.0304 53.6672 60.1377 53.1265 60.1386H30.6873L33.0985 57.5824L35.9776 54.5321L38.2966 56.9763H48.1788L53.6601 51.1853L55.1491 49.6107L51.5651 45.8159L50.5966 44.8014L50.0696 44.2348L44.5817 50.0324L46.0706 51.6003L50.0696 47.3839L52.1646 49.6107L47.3026 54.7495H39.1728L37.4796 52.9509L49.4437 40.3017L53.7853 44.9134L55.2808 43.3322L50.9327 38.7205L56.6512 32.6792L57.2375 32.0599Z" fill="#828282"/>
<path d="M57.2441 32.0533V53.5109H57.2375V32.0599L57.2441 32.0533Z" fill="#1E4696"/>
<path d="M48.1853 10.7934V5.83915C48.1853 4.74824 47.7524 3.70191 46.9816 2.9299C46.2108 2.15789 45.1652 1.7233 44.0743 1.72156H15.4158C14.3243 1.7233 13.278 2.15768 12.5062 2.9295C11.7343 3.70132 11.3 4.74763 11.2982 5.83915V47.2325C11.3 48.324 11.7343 49.3703 12.5062 50.1422C13.278 50.914 14.3243 51.3484 15.4158 51.3501H20.6139" stroke="#828282" stroke-width="0.705476" stroke-miterlimit="10" stroke-linecap="round"/>
<path d="M43.488 7.67053H17.0366C16.4835 7.67053 16.0352 8.11887 16.0352 8.67193C16.0352 9.22499 16.4835 9.67333 17.0366 9.67333H43.488C44.041 9.67333 44.4894 9.22499 44.4894 8.67193C44.4894 8.11887 44.041 7.67053 43.488 7.67053Z" fill="#828282"/>
<path d="M20.805 12.7632C20.5082 13.3397 20.3545 13.9793 20.3571 14.6277V14.766H17.03C16.7956 14.7276 16.5825 14.6072 16.4288 14.4262C16.275 14.2451 16.1906 14.0153 16.1906 13.7778C16.1906 13.5403 16.275 13.3105 16.4288 13.1295C16.5825 12.9485 16.7956 12.828 17.03 12.7896L20.805 12.7632Z" fill="#828282"/>
<path d="M20.3571 17.8493V19.8257H17.03C16.7956 19.7873 16.5825 19.6669 16.4288 19.4859C16.275 19.3048 16.1906 19.075 16.1906 18.8375C16.1906 18.6 16.275 18.3702 16.4288 18.1892C16.5825 18.0082 16.7956 17.8877 17.03 17.8493H20.3571Z" fill="#828282"/>
<path d="M20.3571 22.9551V24.9315H17.03C16.7956 24.8931 16.5825 24.7727 16.4288 24.5916C16.275 24.4106 16.1906 24.1808 16.1906 23.9433C16.1906 23.7058 16.275 23.476 16.4288 23.295C16.5825 23.1139 16.7956 22.9935 17.03 22.9551H20.3571Z" fill="#828282"/>
<path d="M20.3571 28.0347V30.0111H17.03C16.7956 29.9727 16.5825 29.8522 16.4288 29.6712C16.275 29.4902 16.1906 29.2604 16.1906 29.0229C16.1906 28.7854 16.275 28.5556 16.4288 28.3746C16.5825 28.1935 16.7956 28.0731 17.03 28.0347H20.3571Z" fill="#828282"/>
<path d="M20.3571 33.1207V35.0972H17.03C16.7956 35.0588 16.5825 34.9383 16.4288 34.7573C16.275 34.5763 16.1906 34.3465 16.1906 34.109C16.1906 33.8714 16.275 33.6416 16.4288 33.4606C16.5825 33.2796 16.7956 33.1591 17.03 33.1207H20.3571Z" fill="#828282"/>
<path d="M20.357 38.1804V40.1568H17.0299C16.8016 40.1109 16.5963 39.9874 16.4487 39.8073C16.3012 39.6271 16.2206 39.4014 16.2206 39.1686C16.2206 38.9357 16.3012 38.71 16.4487 38.5299C16.5963 38.3498 16.8016 38.2262 17.0299 38.1804H20.357Z" fill="#828282"/>
</g>
<defs>
<clipPath id="clip0_515_4538">
<rect width="68" height="60.0519" fill="white"/>
</clipPath>
</defs>
</svg>
