<svg width="249" height="93" viewBox="0 0 249 93" fill="none" xmlns="http://www.w3.org/2000/svg">
<g clip-path="url(#clip0_502_4295)">
<path d="M249 14.1757V82.5908C248.999 85.3511 247.894 87.9979 245.928 89.9497C243.962 91.9015 241.296 92.9986 238.516 92.9999H0V82.8555L6.66461 75.8312L0 68.8325V9.10091C0.00392183 8.50484 0.187324 7.92357 0.526625 7.43181C0.865927 6.94006 1.34562 6.56031 1.90402 6.34139C2.46243 6.12246 3.07403 6.07438 3.66018 6.20331C4.24633 6.33224 4.78024 6.63229 5.19327 7.0649L23.1364 25.898L9.44836 40.2875L14.1597 45.2198L27.8581 30.8252L65.6464 70.4969L60.2993 76.1214H34.6662L19.2864 60.0114L25.9099 53.0279L38.5163 66.262L43.2123 61.345L25.8946 43.1532L24.2284 44.9144L21.1986 48.0906L9.879 59.9962L14.575 64.9437L31.862 83.0998H63.0472L70.3475 75.4648L79.3652 84.8915C80.9625 86.5682 82.8875 87.9038 85.0224 88.8166C87.1574 89.7294 89.4574 90.2003 91.7819 90.2004H238.029C240.195 90.2004 242.272 89.3461 243.804 87.8255C245.335 86.3049 246.196 84.2425 246.196 82.092V15.3311C246.196 12.1173 244.911 9.03491 242.623 6.76142C240.335 4.48794 237.231 3.20935 233.994 3.20665H112.519C112.335 3.20665 112.153 3.17071 111.983 3.10088C111.814 3.03104 111.659 2.92868 111.529 2.79965C111.399 2.67062 111.296 2.51743 111.226 2.34884C111.156 2.18025 111.12 1.99955 111.12 1.81707C111.12 1.63459 111.156 1.4539 111.226 1.2853C111.296 1.11671 111.399 0.963524 111.529 0.83449C111.659 0.705455 111.814 0.6031 111.983 0.533267C112.153 0.463434 112.335 0.427491 112.519 0.427491H235.153C236.972 0.426822 238.773 0.781973 240.453 1.47265C242.133 2.16332 243.66 3.17598 244.946 4.45275C246.232 5.72952 247.252 7.24537 247.947 8.91368C248.643 10.582 249.001 12.37 249 14.1757Z" fill="#828282"/>
<path d="M57.772 45.6373H64.2315C64.2315 47.2509 65.4824 48.0347 66.9076 48.0347C68.22 48.0347 69.4709 47.3425 69.4709 46.1107C69.4709 44.6957 67.7022 44.2834 65.5388 43.7642C62.2578 42.9549 58.0642 41.9521 58.0642 36.8214C58.0642 32.3778 61.3504 29.8328 66.7077 29.8328C72.1522 29.8328 75.2794 32.6119 75.2794 37.198H68.9993C68.9993 35.7728 67.9329 35.106 66.6359 35.106C65.5183 35.106 64.4468 35.5845 64.4468 36.633C64.4468 37.9106 66.1591 38.3331 68.2969 38.8676C71.6395 39.7278 76.0125 40.8323 76.0125 45.9936C76.0125 50.9208 72.2034 53.476 66.9281 53.476C61.3657 53.4709 57.772 50.5543 57.772 45.6373Z" fill="#828282"/>
<path d="M94.0991 47.5308V52.9211H79.2883V30.3672H93.8223V35.7372H85.5223V39.0813H92.9815V44.1714H85.5223V47.5461L94.0991 47.5308Z" fill="#828282"/>
<path d="M106.218 46.019H103.947V52.9211H97.6929V30.3672H107.536C112.432 30.3672 115.98 33.635 115.98 38.3484C116.006 39.6307 115.687 40.8967 115.056 42.016C114.425 43.1352 113.505 44.0673 112.391 44.716L116.902 52.9211H109.93L106.218 46.019ZM103.947 40.7865H106.808C108.556 40.7865 109.561 39.7379 109.561 38.328C109.561 36.9181 108.536 35.8899 106.808 35.8899H103.947V40.7865Z" fill="#828282"/>
<path d="M139.895 30.3672L131.18 52.9211H125.377L116.492 30.3672H123.634L128.248 44.3851L132.774 30.3672H139.895Z" fill="#828282"/>
<path d="M142.182 30.3672H148.524V52.9211H142.182V30.3672Z" fill="#828282"/>
<path d="M163.816 53.4912C156.905 53.4912 151.743 48.4012 151.743 41.662C151.743 34.9228 156.905 29.7971 163.816 29.7971C169.768 29.7971 174.382 33.7012 175.305 39.4173H168.963C168.634 38.3196 167.958 37.3562 167.035 36.6696C166.111 35.983 164.99 35.6097 163.837 35.6048C160.622 35.6048 158.259 38.1499 158.259 41.662C158.259 45.1741 160.622 47.6733 163.837 47.6733C166.359 47.6733 168.338 46.0394 168.963 43.5351H175.366C174.5 49.465 169.86 53.4912 163.811 53.4912H163.816Z" fill="#828282"/>
<path d="M193.176 47.5308V52.9211H178.365V30.3672H192.899V35.7372H184.594V39.0813H192.059V44.1714H184.594V47.5461L193.176 47.5308Z" fill="#828282"/>
<path d="M47.5598 26.1882L44.9965 23.0629C43.6052 23.4894 42.1564 23.7023 40.7004 23.6941C33.4001 23.6941 28.1863 18.7415 28.1863 11.8445C28.1863 4.94751 33.4052 0 40.7209 0C48.0366 0 53.1939 4.93733 53.1939 11.8445C53.2304 13.4668 52.9214 15.0785 52.287 16.5741C51.6527 18.0696 50.7074 19.4153 49.513 20.523L54.2295 26.1882H47.5598ZM40.7209 17.9118C44.1762 17.9118 46.678 15.3668 46.678 11.8445C46.678 8.3222 44.1608 5.78228 40.7209 5.78228C37.2809 5.78228 34.7227 8.32729 34.7227 11.8445C34.7227 15.3617 37.245 17.9118 40.7209 17.9118Z" fill="#828282"/>
<path d="M69.153 19.4592H61.1042L59.8431 23.124H53.1375L62.0629 0.570068H68.179L77.2941 23.124H70.4039L69.153 19.4592ZM65.1132 7.60959L62.6268 14.5982H67.6253L65.1132 7.60959Z" fill="#828282"/>
<path d="M96.0218 17.3366V23.124H78.0376V21.8311L86.4555 6.35744H78.5913V0.570068H95.6322V1.97492L87.2604 17.3366H96.0218Z" fill="#828282"/>
<path d="M94.9553 65.3204H100.989V82.7181H94.9553V65.3204ZM95.0015 58.0569H100.943V63.1469H95.0015V58.0569Z" fill="#828282"/>
<path d="M104.655 71.0771H116.538V76.5235H104.655V71.0771Z" fill="#828282"/>
<path d="M143.397 70.6649C143.397 78.0455 138.542 83.2882 131.431 83.2882C124.469 83.2882 119.327 78.3204 119.327 71.459C119.327 64.5976 124.377 59.5941 131.375 59.5941C137.327 59.5941 142.197 63.2946 143.166 68.5322H136.588C136.128 67.5677 135.394 66.7582 134.475 66.2037C133.557 65.6492 132.495 65.3739 131.421 65.412C128.017 65.412 125.725 67.8552 125.725 71.459C125.725 75.0627 127.981 77.4703 131.421 77.4703C133.81 77.4703 135.855 76.32 136.547 74.5843H130.949V70.6649H143.397Z" fill="#828282"/>
<path d="M155.085 75.816H152.814V82.7181H146.555V60.1642H156.403C161.299 60.1642 164.846 63.432 164.846 68.1454C164.873 69.4277 164.554 70.6937 163.923 71.813C163.292 72.9323 162.372 73.8643 161.258 74.513L165.769 82.7181H158.766L155.085 75.816ZM152.814 70.5835H155.675C157.423 70.5835 158.428 69.5655 158.428 68.1301C158.428 66.6947 157.403 65.6869 155.675 65.6869H152.814V70.5835Z" fill="#828282"/>
<path d="M179.652 83.2882C172.347 83.2882 167.138 78.3356 167.138 71.4437C167.138 64.5518 172.321 59.5941 179.652 59.5941C186.983 59.5941 192.125 64.5314 192.125 71.4437C192.125 78.356 186.906 83.2882 179.652 83.2882ZM179.652 77.5059C183.108 77.5059 185.609 74.9609 185.609 71.4437C185.609 67.9265 183.108 65.3764 179.652 65.3764C176.197 65.3764 173.654 67.9214 173.654 71.4437C173.654 74.966 176.192 77.5059 179.652 77.5059Z" fill="#828282"/>
<path d="M195.058 73.9938V60.1642H201.456V73.8767C201.456 76.0807 202.886 77.5059 204.973 77.5059C207.059 77.5059 208.494 76.0807 208.494 73.8767V60.1642H214.887V73.9938C214.887 79.542 210.786 83.2882 204.973 83.2882C199.159 83.2882 195.058 79.542 195.058 73.9938Z" fill="#828282"/>
<path d="M237.137 68.3133C237.137 73.042 233.548 76.4879 228.724 76.4879H225.325V82.7181H219.055V60.1642H228.724C233.554 60.1642 237.137 63.5847 237.137 68.3133ZM230.708 68.3133C230.73 67.9504 230.674 67.587 230.544 67.2469C230.415 66.9068 230.215 66.5975 229.957 66.3392C229.699 66.0809 229.39 65.8794 229.048 65.7477C228.707 65.616 228.342 65.5571 227.976 65.5749H225.325V71.0467H227.976C228.34 71.0642 228.703 71.0058 229.043 70.8754C229.383 70.7449 229.692 70.5452 229.949 70.2892C230.206 70.0331 230.407 69.7264 230.538 69.3887C230.668 69.051 230.727 68.6899 230.708 68.3286V68.3133Z" fill="#828282"/>
</g>
<defs>
<clipPath id="clip0_502_4295">
<rect width="249" height="93" fill="white"/>
</clipPath>
</defs>
</svg>
