<svg width="1628" height="132" viewBox="0 0 1628 132" fill="none" xmlns="http://www.w3.org/2000/svg">
<path d="M120.264 131.856H82.536L70.152 115.872C66.216 116.544 62.136 116.88 57.912 116.88C40.632 116.88 26.712 111.984 16.152 102.192C5.592 92.4 0.312 79.536 0.312 63.6C0.312 47.664 5.592 34.8 16.152 25.008C26.712 15.216 40.632 10.32 57.912 10.32C75.192 10.32 89.112 15.216 99.672 25.008C110.232 34.8 115.512 47.664 115.512 63.6C115.512 80.4 109.704 93.744 98.088 103.632L120.264 131.856ZM42.072 47.328C38.04 51.456 36.024 56.88 36.024 63.6C36.024 70.32 38.04 75.744 42.072 79.872C46.104 84 51.384 86.064 57.912 86.064C64.44 86.064 69.72 84 73.752 79.872C77.784 75.744 79.8 70.32 79.8 63.6C79.8 60.24 79.272 57.168 78.216 54.384C77.16 51.6 75.672 49.248 73.752 47.328C71.832 45.312 69.528 43.776 66.84 42.72C64.152 41.664 61.176 41.136 57.912 41.136C51.384 41.136 46.104 43.2 42.072 47.328ZM189.178 114L184.858 100.032H152.746L148.282 114H112.138L152.314 13.2H186.01L226.474 114H189.178ZM178.666 76.56L168.874 48.768L159.082 76.56H178.666ZM276.358 82.752H311.782V114H227.83V105.072L261.382 44.448H230.278V13.2H310.054V22.128L276.358 82.752ZM360.745 116.88C347.497 116.88 337.129 113.808 329.641 107.664C322.249 101.52 318.553 92.976 318.553 82.032H353.833C353.833 84.24 354.457 85.968 355.705 87.216C356.953 88.464 358.633 89.088 360.745 89.088C362.665 89.088 364.201 88.608 365.353 87.648C366.601 86.592 367.225 85.2 367.225 83.472C367.225 82.224 366.889 81.168 366.217 80.304C365.545 79.344 364.297 78.48 362.473 77.712C360.745 76.944 359.305 76.416 358.153 76.128C357.001 75.744 354.985 75.168 352.105 74.4C349.321 73.728 347.209 73.2 345.769 72.816C344.425 72.432 342.409 71.76 339.721 70.8C337.033 69.84 334.921 68.88 333.385 67.92C331.945 66.96 330.217 65.664 328.201 64.032C326.281 62.304 324.793 60.48 323.737 58.56C322.681 56.64 321.769 54.288 321.001 51.504C320.233 48.72 319.849 45.648 319.849 42.288C319.849 32.304 323.353 24.48 330.361 18.816C337.465 13.152 347.353 10.32 360.025 10.32C372.505 10.32 382.201 13.248 389.113 19.104C396.121 24.864 399.625 32.88 399.625 43.152H365.641C365.641 39.12 363.769 37.104 360.025 37.104C356.377 37.104 354.553 38.64 354.553 41.712C354.553 43.92 355.705 45.6 358.009 46.752C360.409 47.904 364.345 49.2 369.817 50.64C373.081 51.504 375.577 52.224 377.305 52.8C379.129 53.28 381.577 54.144 384.649 55.392C387.721 56.544 390.169 57.888 391.993 59.424C393.817 60.864 395.689 62.64 397.609 64.752C399.529 66.864 400.921 69.456 401.785 72.528C402.745 75.504 403.225 78.864 403.225 82.608C403.225 93.36 399.481 101.76 391.993 107.808C384.505 113.856 374.089 116.88 360.745 116.88ZM447.54 86.928H484.116V114H414.42V13.2H483.396V40.272H447.54V51.216H479.652V75.984H447.54V86.928ZM550.669 114L537.709 86.64H530.797V114H497.389V13.2H544.477C556.285 13.2 565.885 16.704 573.277 23.712C580.669 30.72 584.365 39.936 584.365 51.36C584.365 63.072 579.709 72.192 570.397 78.72L587.965 114H550.669ZM530.797 41.856V61.008H539.005C542.269 61.008 544.861 60.096 546.781 58.272C548.701 56.448 549.661 54.144 549.661 51.36C549.661 49.536 549.229 47.904 548.365 46.464C547.597 45.024 546.397 43.92 544.765 43.152C543.133 42.288 541.213 41.856 539.005 41.856H530.797ZM654.368 13.2H693.68L653.936 114H623.264L583.52 13.2H622.832L638.672 66.624L654.368 13.2ZM700.451 114V13.2H734.723V114H700.451ZM801.346 116.88C785.218 116.88 771.922 111.888 761.458 101.904C750.994 91.824 745.762 79.056 745.762 63.6C745.762 48.144 750.994 35.424 761.458 25.44C771.922 15.36 785.218 10.32 801.346 10.32C815.65 10.32 827.698 14.544 837.49 22.992C847.378 31.344 853.234 42.336 855.058 55.968H820.786C819.346 51.456 816.85 47.856 813.298 45.168C809.842 42.384 805.906 40.992 801.49 40.992C795.538 40.992 790.69 43.104 786.946 47.328C783.298 51.456 781.474 56.88 781.474 63.6C781.474 70.32 783.298 75.744 786.946 79.872C790.69 84 795.538 86.064 801.49 86.064C806.194 86.064 810.274 84.576 813.73 81.6C817.282 78.528 819.586 74.544 820.642 69.648H855.346C853.714 83.664 847.906 95.04 837.922 103.776C828.034 112.512 815.842 116.88 801.346 116.88ZM899.087 86.928H935.663V114H865.967V13.2H934.943V40.272H899.087V51.216H931.199V75.984H899.087V86.928ZM976.056 26.592V0.959996H1007.74V26.592H976.056ZM975.768 114V36.24H1008.02V114H975.768ZM1021.61 88.8V61.152H1081.8V88.8H1021.61ZM1144.69 59.136H1202.29C1202.29 76.416 1197.25 90.384 1187.17 101.04C1177.09 111.6 1163.8 116.88 1147.28 116.88C1131.06 116.88 1117.76 111.936 1107.4 102.048C1097.03 92.064 1091.84 79.248 1091.84 63.6C1091.84 47.952 1097.03 35.184 1107.4 25.296C1117.76 15.312 1131.06 10.32 1147.28 10.32C1161.3 10.32 1173.4 14.208 1183.57 21.984C1193.75 29.76 1199.75 39.744 1201.57 51.936H1166C1165.14 49.824 1163.75 47.952 1161.83 46.32C1159.91 44.688 1157.65 43.44 1155.06 42.576C1152.56 41.616 1149.97 41.136 1147.28 41.136C1141.04 41.136 1136 43.2 1132.16 47.328C1128.32 51.456 1126.4 56.88 1126.4 63.6C1126.4 70.32 1128.32 75.744 1132.16 79.872C1136 84 1141.04 86.064 1147.28 86.064C1151.6 86.064 1155.4 85.2 1158.66 83.472C1161.92 81.744 1164.18 79.44 1165.43 76.56H1144.69V59.136ZM1266.45 114L1253.49 86.64H1246.58V114H1213.17V13.2H1260.26C1272.07 13.2 1281.67 16.704 1289.06 23.712C1296.45 30.72 1300.15 39.936 1300.15 51.36C1300.15 63.072 1295.49 72.192 1286.18 78.72L1303.75 114H1266.45ZM1246.58 41.856V61.008H1254.79C1258.05 61.008 1260.64 60.096 1262.56 58.272C1264.48 56.448 1265.44 54.144 1265.44 51.36C1265.44 49.536 1265.01 47.904 1264.15 46.464C1263.38 45.024 1262.18 43.92 1260.55 43.152C1258.91 42.288 1256.99 41.856 1254.79 41.856H1246.58ZM1407.06 102.192C1396.5 111.984 1382.58 116.88 1365.3 116.88C1348.02 116.88 1334.1 111.984 1323.54 102.192C1312.98 92.4 1307.7 79.536 1307.7 63.6C1307.7 47.664 1312.98 34.8 1323.54 25.008C1334.1 15.216 1348.02 10.32 1365.3 10.32C1382.58 10.32 1396.5 15.216 1407.06 25.008C1417.62 34.8 1422.9 47.664 1422.9 63.6C1422.9 79.536 1417.62 92.4 1407.06 102.192ZM1349.46 79.872C1353.49 84 1358.77 86.064 1365.3 86.064C1371.83 86.064 1377.11 84 1381.14 79.872C1385.17 75.744 1387.19 70.32 1387.19 63.6C1387.19 56.88 1385.17 51.456 1381.14 47.328C1377.11 43.2 1371.83 41.136 1365.3 41.136C1358.77 41.136 1353.49 43.2 1349.46 47.328C1345.43 51.456 1343.41 56.88 1343.41 63.6C1343.41 70.32 1345.43 75.744 1349.46 79.872ZM1513.44 105.072C1504.89 112.944 1493.61 116.88 1479.6 116.88C1465.58 116.88 1454.3 112.944 1445.76 105.072C1437.21 97.2 1432.94 86.736 1432.94 73.68V13.2H1467.79V73.824C1467.79 77.472 1468.84 80.448 1470.96 82.752C1473.16 84.96 1476.04 86.064 1479.6 86.064C1483.15 86.064 1485.98 84.96 1488.09 82.752C1490.3 80.448 1491.4 77.472 1491.4 73.824V13.2H1526.25V73.68C1526.25 86.736 1521.98 97.2 1513.44 105.072ZM1588.77 13.2C1600.2 13.2 1609.56 16.752 1616.85 23.856C1624.25 30.96 1627.94 40.128 1627.94 51.36C1627.94 62.592 1624.25 71.808 1616.85 79.008C1609.56 86.208 1600.2 89.808 1588.77 89.808H1574.52V114H1540.97V13.2H1588.77ZM1582.29 62.16C1585.56 62.16 1588.15 61.2 1590.07 59.28C1592.09 57.264 1593.09 54.672 1593.09 51.504C1593.09 48.336 1592.09 45.792 1590.07 43.872C1588.15 41.856 1585.56 40.848 1582.29 40.848H1574.52V62.16H1582.29Z" fill="#E0E0E0"/>
</svg>
