<svg width="68" height="61" viewBox="0 0 68 61" fill="none" xmlns="http://www.w3.org/2000/svg">
<path d="M43.3438 30.5176C43.3452 32.4036 42.7871 34.2477 41.7402 35.8165C40.6934 37.3853 39.2048 38.6084 37.4627 39.3311C35.7206 40.0537 33.8033 40.2435 31.9534 39.8764C30.1035 39.5092 28.4039 38.6017 27.0699 37.2685C25.7358 35.9354 24.827 34.2365 24.4586 32.3868C24.0902 30.5371 24.2786 28.6197 25 26.8771C25.7215 25.1346 26.9435 23.6451 28.5116 22.5971C30.0797 21.5492 31.9233 20.9898 33.8094 20.9898C35.0611 20.9889 36.3008 21.2347 37.4575 21.7131C38.6143 22.1916 39.6654 22.8932 40.5509 23.7781C41.4363 24.6629 42.1387 25.7135 42.6179 26.8699C43.0972 28.0263 43.3438 29.2658 43.3438 30.5176V30.5176Z" stroke="white" stroke-width="0.896099" stroke-miterlimit="10"/>
<path d="M54.338 8.94443V4.07007H12.5443C11.1692 4.07184 9.8511 4.61933 8.87941 5.59227C7.90772 6.56522 7.36194 7.88406 7.36194 9.25913V51.7759C7.36194 53.151 7.90772 54.4698 8.87941 55.4427C9.8511 56.4157 11.1692 56.9632 12.5443 56.9649H54.3447V51.6085C53.848 51.6067 53.3721 51.4086 53.0209 51.0574C52.6697 50.7062 52.4717 50.2304 52.4699 49.7337V44.8795C52.4699 44.3823 52.6674 43.9054 53.019 43.5538C53.3706 43.2022 53.8474 43.0047 54.3447 43.0047V43.0047V17.5616C53.8474 17.5616 53.3706 17.3641 53.019 17.0125C52.6674 16.6609 52.4699 16.1841 52.4699 15.6869V10.8259C52.4699 10.3292 52.6663 9.85266 53.0162 9.50021C53.3662 9.14775 53.8413 8.94797 54.338 8.94443V8.94443ZM41.2816 41.612C39.0723 43.0971 36.4714 43.8918 33.8094 43.8952C33.3509 43.8942 32.8928 43.8696 32.4368 43.8216C30.7617 43.6515 29.1345 43.1629 27.6428 42.382C24.866 40.9399 22.6818 38.571 21.4695 35.6865C20.9134 34.3619 20.5787 32.9549 20.4785 31.5218C20.4517 31.2005 20.4384 30.8724 20.4384 30.5376C20.4359 29.1753 20.6414 27.8206 21.0477 26.5203C21.4767 25.1468 22.1281 23.853 22.976 22.6904C23.9581 21.3231 25.1893 20.1533 26.605 19.2422C28.7553 17.8762 31.2485 17.1473 33.796 17.1398C34.3897 17.1412 34.9825 17.1837 35.5703 17.267C37.0048 17.4499 38.3988 17.8708 39.6948 18.5124C41.863 19.5745 43.7028 21.2043 45.0185 23.2286C46.3342 25.2529 47.0767 27.596 47.167 30.0086C47.167 30.176 47.167 30.3434 47.167 30.5175C47.1677 33.483 46.1806 36.3642 44.3616 38.7062C43.4964 39.8328 42.4566 40.8138 41.2816 41.612V41.612Z" stroke="white" stroke-width="0.896099" stroke-miterlimit="10"/>
<path d="M60.2568 9.25917V51.7759C60.2568 53.151 59.711 54.4699 58.7393 55.4428C57.7676 56.4157 56.4495 56.9632 55.0744 56.965H54.3513V51.6086C54.8468 51.605 55.321 51.4062 55.6707 51.0552C56.0205 50.7041 56.2176 50.2293 56.2194 49.7338V44.8795C56.2231 44.6308 56.1763 44.3839 56.082 44.1538C55.9876 43.9236 55.8476 43.715 55.6704 43.5404C55.4944 43.365 55.2855 43.2262 55.0557 43.132C54.8259 43.0377 54.5796 42.99 54.3312 42.9914V17.5483C54.8268 17.5447 55.3009 17.3459 55.6506 16.9949C56.0004 16.6439 56.1976 16.169 56.1993 15.6735V10.8259C56.2007 10.5775 56.1529 10.3313 56.0587 10.1015C55.9645 9.87163 55.8257 9.66273 55.6503 9.48682C55.2933 9.13507 54.8123 8.93785 54.3112 8.93778V4.07012H55.0343C55.7185 4.0657 56.3969 4.19666 57.0303 4.45546C57.6638 4.71426 58.2398 5.09578 58.7252 5.57807C59.2106 6.06036 59.5958 6.63388 59.8586 7.26564C60.1215 7.8974 60.2568 8.57491 60.2568 9.25917V9.25917Z" stroke="white" stroke-width="0.896099" stroke-miterlimit="10"/>
<path d="M43.3438 30.5176C43.3452 32.4036 42.7871 34.2477 41.7402 35.8165C40.6934 37.3853 39.2048 38.6084 37.4627 39.3311C35.7206 40.0537 33.8033 40.2435 31.9534 39.8764C30.1035 39.5092 28.4039 38.6017 27.0699 37.2685C25.7358 35.9354 24.827 34.2365 24.4586 32.3868C24.0902 30.5371 24.2786 28.6197 25 26.8771C25.7215 25.1346 26.9435 23.6451 28.5116 22.5971C30.0797 21.5492 31.9233 20.9898 33.8094 20.9898C35.0611 20.9889 36.3008 21.2347 37.4575 21.7131C38.6143 22.1916 39.6654 22.8932 40.5509 23.7781C41.4363 24.6629 42.1387 25.7135 42.6179 26.8699C43.0972 28.0263 43.3438 29.2658 43.3438 30.5176V30.5176Z" stroke="white" stroke-width="0.896099" stroke-miterlimit="10"/>
<path d="M47.1804 30.0087C47.0866 27.597 46.3426 25.2554 45.0273 23.2317C43.7119 21.208 41.8741 19.5775 39.7082 18.5125C38.4122 17.8709 37.0182 17.45 35.5837 17.2671C34.9959 17.1838 34.4031 17.1413 33.8094 17.1399C31.2574 17.1448 28.7591 17.8739 26.605 19.2423C25.1893 20.1534 23.9582 21.3232 22.976 22.6905C22.1275 23.8551 21.476 25.1512 21.0477 26.5271C20.6414 27.8274 20.4359 29.1821 20.4384 30.5444C20.4384 30.8792 20.4518 31.2073 20.4785 31.5286C20.5787 32.9617 20.9135 34.3687 21.4695 35.6933C22.6818 38.5778 24.866 40.9467 27.6428 42.3888C29.1345 43.1697 30.7617 43.6583 32.4368 43.8284C32.8928 43.8764 33.3509 43.901 33.8094 43.902C36.4714 43.8987 39.0724 43.1039 41.2816 41.6188C42.4638 40.8223 43.5104 39.8412 44.3817 38.713C46.2007 36.371 47.1878 33.4898 47.1871 30.5243C47.1871 30.3435 47.1804 30.1761 47.1804 30.0087ZM33.7893 40.0521C31.9063 40.0468 30.0671 39.4837 28.504 38.4338C26.9408 37.384 25.7238 35.8945 25.0066 34.1535C24.2893 32.4124 24.1041 30.4979 24.4742 28.6516C24.8443 26.8054 25.7532 25.1102 27.086 23.7801C28.4189 22.45 30.116 21.5447 31.963 21.1785C33.8101 20.8123 35.7242 21.0016 37.4637 21.7225C39.2033 22.4433 40.6902 23.6635 41.7367 25.2289C42.7833 26.7942 43.3425 28.6346 43.3439 30.5176C43.3421 33.0452 42.3368 35.4686 40.5489 37.2552C38.7611 39.0418 36.3369 40.0454 33.8094 40.0454L33.7893 40.0521Z" stroke="white" stroke-width="0.896099" stroke-miterlimit="10"/>
<path d="M35.5838 17.267C34.996 17.1837 34.4031 17.1412 33.8094 17.1398C32.7212 17.1396 31.6372 17.2746 30.5822 17.5415L30.455 16.0618C30.4209 15.7315 30.453 15.3977 30.5495 15.0799C30.6459 14.7621 30.8048 14.4668 31.0168 14.2112C31.2288 13.9556 31.4896 13.7448 31.784 13.5912C32.0784 13.4376 32.4005 13.3442 32.7315 13.3166C33.3911 13.2653 34.0454 13.469 34.5593 13.8857C35.0665 14.3169 35.3839 14.9301 35.4432 15.5931L35.5838 17.267Z" stroke="white" stroke-width="0.896099" stroke-miterlimit="10"/>
<path d="M44.6829 20.1594L43.7255 21.4986C42.5893 20.2488 41.226 19.2263 39.7081 18.4856L40.5652 17.2603C40.8499 16.8546 41.2483 16.5423 41.7101 16.3627C42.172 16.1831 42.6767 16.1441 43.1607 16.2508C43.6447 16.3575 44.0862 16.605 44.4298 16.9622C44.7734 17.3193 45.0035 17.7702 45.0914 18.2579C45.1517 18.5861 45.1466 18.9231 45.0765 19.2493C45.0065 19.5756 44.8727 19.8849 44.6829 20.1594Z" stroke="white" stroke-width="0.896099" stroke-miterlimit="10"/>
<path d="M50.3474 28.4016C50.0124 28.9736 49.4668 29.3917 48.8275 29.5667L47.1804 30.0086C47.1182 28.3228 46.7365 26.6642 46.0555 25.1208L47.5286 24.7258C48.0072 24.5996 48.5125 24.6177 48.9809 24.7778C49.4493 24.9379 49.8599 25.2329 50.1611 25.6258C50.4623 26.0186 50.6407 26.4916 50.6739 26.9855C50.707 27.4794 50.5934 27.9721 50.3474 28.4016V28.4016Z" stroke="white" stroke-width="0.896099" stroke-miterlimit="10"/>
<path d="M49.2827 38.2308C49.1453 38.5291 48.9504 38.7974 48.7091 39.0203C48.4678 39.2432 48.1849 39.4163 47.8767 39.5297C47.2497 39.7555 46.559 39.7242 45.955 39.4427L44.3816 38.7062C45.4203 37.3776 46.1932 35.8613 46.6581 34.2402L48.0775 34.9098C48.3748 35.0486 48.6418 35.2447 48.8632 35.4868C49.0847 35.7288 49.2563 36.0122 49.3682 36.3206C49.4801 36.629 49.5302 36.9564 49.5155 37.2842C49.5009 37.612 49.4218 37.9336 49.2827 38.2308V38.2308Z" stroke="white" stroke-width="0.896099" stroke-miterlimit="10"/>
<path d="M40.746 46.3792C40.1436 46.6575 39.4562 46.6887 38.831 46.4663C38.5212 46.3543 38.2367 46.1818 37.9941 45.9587C37.7516 45.7357 37.5558 45.4667 37.4183 45.1673L36.6818 43.5805C38.3271 43.2254 39.8888 42.5571 41.2816 41.612L41.9512 43.0515C42.2304 43.653 42.2604 44.3404 42.0346 44.9638C41.8088 45.5873 41.3455 46.0961 40.746 46.3792V46.3792Z" stroke="white" stroke-width="0.896099" stroke-miterlimit="10"/>
<path d="M32.4368 43.8216L32.0284 45.3548C31.9436 45.6728 31.7971 45.9709 31.5971 46.2322C31.3971 46.4934 31.1476 46.7127 30.8628 46.8775C30.578 47.0423 30.2635 47.1493 29.9373 47.1925C29.6112 47.2357 29.2797 47.2142 28.9618 47.1292C28.6431 47.0461 28.344 46.9005 28.0821 46.7008C27.8202 46.5011 27.6006 46.2513 27.4361 45.9659C27.2716 45.6805 27.1655 45.3653 27.1239 45.0385C27.0824 44.7118 27.1063 44.38 27.1942 44.0626L27.6428 42.382C29.1345 43.1628 30.7617 43.6514 32.4368 43.8216V43.8216Z" stroke="white" stroke-width="0.896099" stroke-miterlimit="10"/>
<path d="M24.228 39.8444L22.9425 40.7684C22.6743 40.9731 22.3675 41.1215 22.0405 41.2047C21.7135 41.2879 21.3731 41.3041 21.0397 41.2524C20.7063 41.2008 20.3868 41.0822 20.1003 40.904C19.8138 40.7258 19.5663 40.4915 19.3727 40.2152C19.179 39.9389 19.0432 39.6264 18.9733 39.2963C18.9035 38.9662 18.901 38.6254 18.9662 38.2944C19.0313 37.9633 19.1627 37.6489 19.3524 37.3698C19.5421 37.0908 19.7862 36.853 20.0701 36.6707L21.4695 35.6932C22.122 37.2369 23.0576 38.6449 24.228 39.8444V39.8444Z" stroke="white" stroke-width="0.896099" stroke-miterlimit="10"/>
<path d="M20.4384 30.5175C20.4384 30.8522 20.4518 31.1803 20.4785 31.5017L18.952 31.3678C18.6182 31.3479 18.2918 31.2614 17.992 31.1133C17.6922 30.9652 17.4251 30.7586 17.2065 30.5057C16.9878 30.2527 16.822 29.9585 16.7189 29.6404C16.6158 29.3224 16.5774 28.9869 16.606 28.6538C16.6346 28.3206 16.7297 27.9966 16.8855 27.7008C17.0414 27.405 17.2549 27.1434 17.5135 26.9314C17.7721 26.7194 18.0705 26.5614 18.3912 26.4666C18.7118 26.3719 19.0482 26.3423 19.3805 26.3796L21.0477 26.5202C20.6434 27.8141 20.438 29.1619 20.4384 30.5175V30.5175Z" stroke="white" stroke-width="0.896099" stroke-miterlimit="10"/>
<path d="M26.6049 19.2422C25.1892 20.1533 23.9581 21.3231 22.9759 22.6904L21.918 21.6191C21.4483 21.1494 21.1844 20.5124 21.1844 19.8482C21.1844 19.1839 21.4483 18.5469 21.918 18.0772C22.3877 17.6075 23.0247 17.3436 23.689 17.3436C24.3532 17.3436 24.9903 17.6075 25.46 18.0772L26.6049 19.2422Z" stroke="white" stroke-width="0.896099" stroke-miterlimit="10"/>
<path d="M56.2194 10.8259V15.6735C56.2176 16.169 56.0205 16.6438 55.6707 16.9948C55.3209 17.3459 54.8468 17.5447 54.3513 17.5482V17.5482C53.8541 17.5482 53.3772 17.3507 53.0257 16.9991C52.6741 16.6476 52.4766 16.1707 52.4766 15.6735V10.8259C52.4766 10.3281 52.6739 9.85053 53.0253 9.49788C53.3766 9.14523 53.8535 8.94623 54.3513 8.94446V8.94446C54.8525 8.94453 55.3335 9.14174 55.6904 9.49349C56.0357 9.85042 56.2258 10.3294 56.2194 10.8259V10.8259Z" stroke="white" stroke-width="0.896099" stroke-miterlimit="10"/>
<path d="M56.2194 44.8593V49.7136C56.2176 50.2091 56.0205 50.684 55.6707 51.035C55.3209 51.386 54.8468 51.5849 54.3513 51.5884V51.5884C53.8546 51.5866 53.3788 51.3885 53.0276 51.0373C52.6764 50.6861 52.4783 50.2103 52.4766 49.7136V44.8593C52.4766 44.3621 52.6741 43.8853 53.0257 43.5337C53.3772 43.1821 53.8541 42.9846 54.3513 42.9846V42.9846C54.5997 42.9832 54.8459 43.031 55.0758 43.1252C55.3056 43.2194 55.5145 43.3582 55.6904 43.5336C55.8624 43.7083 55.9978 43.9155 56.0886 44.1431C56.1794 44.3708 56.2239 44.6143 56.2194 44.8593V44.8593Z" stroke="white" stroke-width="0.896099" stroke-miterlimit="10"/>
</svg>
