<svg width="68" height="61" viewBox="0 0 68 61" fill="none" xmlns="http://www.w3.org/2000/svg">
<g clip-path="url(#clip0_513_4431)">
<path d="M53.1328 12.2953C53.876 12.297 54.5882 12.5935 55.1131 13.1196C55.638 13.6458 55.9328 14.3586 55.9328 15.1018V32.5341L55.8999 52.259L52.3225 57.0947L30.6277 59.2952H24.4744C24.1067 59.2952 23.7426 59.2227 23.4029 59.082C23.0632 58.9413 22.7545 58.7351 22.4945 58.4751C22.2345 58.2151 22.0283 57.9064 21.8875 57.5667C21.7468 57.227 21.6744 56.8629 21.6744 56.4952V15.1018C21.6722 14.6599 21.7761 14.2238 21.9775 13.8303C22.2106 13.3683 22.5675 12.9801 23.0084 12.709C23.4493 12.438 23.9568 12.2947 24.4744 12.2953H53.1328ZM53.1328 10.9777H24.4744C23.7135 10.9778 22.9676 11.1892 22.3197 11.5881C21.6719 11.9871 21.1474 12.558 20.8048 13.2374C20.5079 13.8139 20.3543 14.4534 20.3568 15.1018V56.4952C20.3585 57.5867 20.7929 58.633 21.5647 59.4049C22.3365 60.1767 23.3829 60.6111 24.4744 60.6128H30.687L53.0274 58.3465L57.2109 52.6938L57.2438 32.5341V15.1018C57.2438 14.0103 56.8111 12.9633 56.0406 12.1903C55.27 11.4172 54.2243 10.9811 53.1328 10.9777Z" fill="white"/>
<path d="M52.54 16.9267H26.0886C25.5355 16.9267 25.0872 17.375 25.0872 17.9281C25.0872 18.4812 25.5355 18.9295 26.0886 18.9295H52.54C53.093 18.9295 53.5414 18.4812 53.5414 17.9281C53.5414 17.375 53.093 16.9267 52.54 16.9267Z" fill="white"/>
<path d="M52.54 22.0259H26.0886C25.5355 22.0259 25.0872 22.4742 25.0872 23.0273C25.0872 23.5803 25.5355 24.0287 26.0886 24.0287H52.54C53.093 24.0287 53.5414 23.5803 53.5414 23.0273C53.5414 22.4742 53.093 22.0259 52.54 22.0259Z" fill="white"/>
<path d="M52.54 27.1185H26.0886C25.5355 27.1185 25.0872 27.5669 25.0872 28.1199C25.0872 28.673 25.5355 29.1213 26.0886 29.1213H52.54C53.093 29.1213 53.5414 28.673 53.5414 28.1199C53.5414 27.5669 53.093 27.1185 52.54 27.1185Z" fill="white"/>
<path d="M52.54 32.2178H26.0886C25.5355 32.2178 25.0872 32.6662 25.0872 33.2192C25.0872 33.7723 25.5355 34.2206 26.0886 34.2206H52.54C53.093 34.2206 53.5414 33.7723 53.5414 33.2192C53.5414 32.6662 53.093 32.2178 52.54 32.2178Z" fill="white"/>
<path d="M44.9966 37.2906H26.0886C25.5355 37.2906 25.0872 37.7389 25.0872 38.292C25.0872 38.845 25.5355 39.2934 26.0886 39.2934H44.9966C45.5496 39.2934 45.998 38.845 45.998 38.292C45.998 37.7389 45.5496 37.2906 44.9966 37.2906Z" fill="white"/>
<path d="M37.1501 42.3766H26.0886C25.5355 42.3766 25.0872 42.825 25.0872 43.378C25.0872 43.9311 25.5355 44.3794 26.0886 44.3794H37.1501C37.7031 44.3794 38.1515 43.9311 38.1515 43.378C38.1515 42.825 37.7031 42.3766 37.1501 42.3766Z" fill="white"/>
<path d="M30.6212 47.4431H26.0886C25.5355 47.4431 25.0872 47.8915 25.0872 48.4445C25.0872 48.9976 25.5355 49.4459 26.0886 49.4459H30.6212C31.1743 49.4459 31.6226 48.9976 31.6226 48.4445C31.6226 47.8915 31.1743 47.4431 30.6212 47.4431Z" fill="white"/>
<path d="M57.2374 32.5339V56.4885C57.2382 57.0292 57.1326 57.5648 56.9265 58.0647C56.7203 58.5646 56.4178 59.019 56.036 59.402C55.6543 59.7849 55.2009 60.089 54.7016 60.2967C54.2024 60.5044 53.6671 60.6118 53.1264 60.6126H30.6871L33.0984 58.0564L35.9774 55.0061L38.2965 57.4503H48.1787L53.66 51.6593L55.1489 50.0848L51.565 46.29L50.5965 45.2754L50.0695 44.7088L44.5816 50.5064L46.0705 52.0744L50.0695 47.858L52.1645 50.0848L47.3025 55.2235H39.1727L37.4795 53.425L49.4436 40.7757L53.7852 45.3874L55.2807 43.8063L50.9325 39.1946L56.651 33.1532L57.2374 32.5339Z" fill="white"/>
<path d="M57.244 32.5273V53.985H57.2374V32.5339L57.244 32.5273Z" fill="#1E4696"/>
<path d="M48.1852 11.2675V6.31321C48.1852 5.2223 47.7523 4.17597 46.9815 3.40396C46.2108 2.63195 45.1651 2.19736 44.0742 2.19562H15.4158C14.3242 2.19736 13.2779 2.63174 12.5061 3.40356C11.7343 4.17538 11.2999 5.22169 11.2982 6.31321V47.7066C11.2999 48.7981 11.7343 49.8444 12.5061 50.6162C13.2779 51.388 14.3242 51.8224 15.4158 51.8242H20.6138" stroke="white" stroke-width="0.705476" stroke-miterlimit="10" stroke-linecap="round"/>
<path d="M43.4879 8.14459H17.0364C16.4834 8.14459 16.035 8.59293 16.035 9.14599C16.035 9.69905 16.4834 10.1474 17.0364 10.1474H43.4879C44.0409 10.1474 44.4893 9.69905 44.4893 9.14599C44.4893 8.59293 44.0409 8.14459 43.4879 8.14459Z" fill="white"/>
<path d="M20.8049 13.2373C20.5081 13.8138 20.3544 14.4533 20.3569 15.1018V15.2401H17.0299C16.7955 15.2017 16.5824 15.0812 16.4286 14.9002C16.2749 14.7192 16.1904 14.4894 16.1904 14.2519C16.1904 14.0144 16.2749 13.7846 16.4286 13.6036C16.5824 13.4225 16.7955 13.3021 17.0299 13.2637L20.8049 13.2373Z" fill="white"/>
<path d="M20.3569 18.3234V20.2998H17.0299C16.7955 20.2614 16.5824 20.1409 16.4286 19.9599C16.2749 19.7789 16.1904 19.5491 16.1904 19.3116C16.1904 19.0741 16.2749 18.8443 16.4286 18.6633C16.5824 18.4822 16.7955 18.3618 17.0299 18.3234H20.3569Z" fill="white"/>
<path d="M20.3569 23.4291V25.4056H17.0299C16.7955 25.3672 16.5824 25.2467 16.4286 25.0657C16.2749 24.8847 16.1904 24.6549 16.1904 24.4174C16.1904 24.1798 16.2749 23.9501 16.4286 23.769C16.5824 23.588 16.7955 23.4675 17.0299 23.4291H20.3569Z" fill="white"/>
<path d="M20.3569 28.5087V30.4852H17.0299C16.7955 30.4468 16.5824 30.3263 16.4286 30.1453C16.2749 29.9643 16.1904 29.7345 16.1904 29.497C16.1904 29.2594 16.2749 29.0296 16.4286 28.8486C16.5824 28.6676 16.7955 28.5471 17.0299 28.5087H20.3569Z" fill="white"/>
<path d="M20.3569 33.5948V35.5712H17.0299C16.7955 35.5328 16.5824 35.4124 16.4286 35.2313C16.2749 35.0503 16.1904 34.8205 16.1904 34.583C16.1904 34.3455 16.2749 34.1157 16.4286 33.9347C16.5824 33.7537 16.7955 33.6332 17.0299 33.5948H20.3569Z" fill="white"/>
<path d="M20.3569 38.6544V40.6309H17.0299C16.8016 40.585 16.5962 40.4615 16.4487 40.2813C16.3011 40.1012 16.2205 39.8755 16.2205 39.6426C16.2205 39.4098 16.3011 39.1841 16.4487 39.004C16.5962 38.8238 16.8016 38.7003 17.0299 38.6544H20.3569Z" fill="white"/>
</g>
<defs>
<clipPath id="clip0_513_4431">
<rect width="68" height="60.0519" fill="white" transform="translate(0 0.47406)"/>
</clipPath>
</defs>
</svg>
