<svg width="48" height="60" viewBox="0 0 48 60" fill="none" xmlns="http://www.w3.org/2000/svg">
<path d="M43.1329 10.8213C43.8761 10.823 44.5883 11.1195 45.1132 11.6456C45.6381 12.1718 45.9329 12.8846 45.9329 13.6278V31.0601L45.8999 50.785L42.3226 55.6207L20.6278 57.8211H14.4744C14.1067 57.8211 13.7426 57.7487 13.4029 57.608C13.0632 57.4673 12.7546 57.261 12.4946 57.001C12.2346 56.741 12.0283 56.4324 11.8876 56.0927C11.7469 55.753 11.6745 55.3889 11.6745 55.0212V13.6278C11.6722 13.1858 11.7762 12.7498 11.9775 12.3563C12.2107 11.8942 12.5676 11.506 13.0085 11.235C13.4494 10.9639 13.9569 10.8207 14.4744 10.8213H43.1329ZM43.1329 9.50363H14.4744C13.7136 9.50381 12.9677 9.71515 12.3198 10.1141C11.6719 10.5131 11.1475 11.084 10.8048 11.7634C10.508 12.3399 10.3543 12.9794 10.3568 13.6278V55.0212C10.3586 56.1127 10.793 57.159 11.5648 57.9308C12.3366 58.7026 13.3829 59.137 14.4744 59.1388H20.6871L43.0275 56.8724L47.211 51.2198L47.2439 31.0601V13.6278C47.2439 12.5363 46.8112 11.4893 46.0406 10.7162C45.27 9.94317 44.2244 9.50712 43.1329 9.50363Z" fill="#828282"/>
<path d="M42.5401 15.4527H16.0887C15.5356 15.4527 15.0873 15.901 15.0873 16.454C15.0873 17.0071 15.5356 17.4554 16.0887 17.4554H42.5401C43.0932 17.4554 43.5415 17.0071 43.5415 16.454C43.5415 15.901 43.0932 15.4527 42.5401 15.4527Z" fill="#828282"/>
<path d="M42.5401 20.5518H16.0887C15.5356 20.5518 15.0873 21.0002 15.0873 21.5532C15.0873 22.1063 15.5356 22.5546 16.0887 22.5546H42.5401C43.0932 22.5546 43.5415 22.1063 43.5415 21.5532C43.5415 21.0002 43.0932 20.5518 42.5401 20.5518Z" fill="#828282"/>
<path d="M42.5401 25.6445H16.0887C15.5356 25.6445 15.0873 26.0928 15.0873 26.6459C15.0873 27.199 15.5356 27.6473 16.0887 27.6473H42.5401C43.0932 27.6473 43.5415 27.199 43.5415 26.6459C43.5415 26.0928 43.0932 25.6445 42.5401 25.6445Z" fill="#828282"/>
<path d="M42.5401 30.7438H16.0887C15.5356 30.7438 15.0873 31.1921 15.0873 31.7452C15.0873 32.2983 15.5356 32.7466 16.0887 32.7466H42.5401C43.0932 32.7466 43.5415 32.2983 43.5415 31.7452C43.5415 31.1921 43.0932 30.7438 42.5401 30.7438Z" fill="#828282"/>
<path d="M34.9967 35.8165H16.0887C15.5356 35.8165 15.0873 36.2649 15.0873 36.8179C15.0873 37.371 15.5356 37.8193 16.0887 37.8193H34.9967C35.5497 37.8193 35.9981 37.371 35.9981 36.8179C35.9981 36.2649 35.5497 35.8165 34.9967 35.8165Z" fill="#828282"/>
<path d="M27.1502 40.9026H16.0887C15.5356 40.9026 15.0873 41.3509 15.0873 41.904C15.0873 42.4571 15.5356 42.9054 16.0887 42.9054H27.1502C27.7032 42.9054 28.1516 42.4571 28.1516 41.904C28.1516 41.3509 27.7032 40.9026 27.1502 40.9026Z" fill="#828282"/>
<path d="M20.6213 45.9691H16.0887C15.5356 45.9691 15.0873 46.4174 15.0873 46.9705C15.0873 47.5235 15.5356 47.9719 16.0887 47.9719H20.6213C21.1744 47.9719 21.6227 47.5235 21.6227 46.9705C21.6227 46.4174 21.1744 45.9691 20.6213 45.9691Z" fill="#828282"/>
<path d="M47.2375 31.0599V55.0144C47.2384 55.5552 47.1327 56.0908 46.9266 56.5907C46.7205 57.0906 46.4179 57.545 46.0362 57.9279C45.6544 58.3109 45.201 58.6149 44.7017 58.8227C44.2025 59.0304 43.6672 59.1378 43.1265 59.1386H20.6873L23.0985 56.5824L25.9776 53.5321L28.2966 55.9763H38.1788L43.6601 50.1853L45.1491 48.6107L41.5651 44.816L40.5966 43.8014L40.0696 43.2348L34.5817 49.0324L36.0706 50.6004L40.0696 46.384L42.1646 48.6107L37.3026 53.7495H29.1728L27.4796 51.9509L39.4437 39.3017L43.7853 43.9134L45.2808 42.3322L40.9327 37.7205L46.6512 31.6792L47.2375 31.0599Z" fill="#828282"/>
<path d="M47.2441 31.0533V52.5109H47.2375V31.0599L47.2441 31.0533Z" fill="#1E4696"/>
<path d="M38.1853 9.79347V4.83918C38.1853 3.74827 37.7524 2.70194 36.9816 1.92993C36.2108 1.15792 35.1652 0.723334 34.0743 0.721588H5.41581C4.32429 0.72333 3.27797 1.15771 2.50615 1.92953C1.73433 2.70135 1.29996 3.74766 1.29822 4.83918V46.2325C1.29996 47.3241 1.73433 48.3704 2.50615 49.1422C3.27797 49.914 4.32429 50.3484 5.41581 50.3501H10.6139" stroke="#828282" stroke-width="0.705476" stroke-miterlimit="10" stroke-linecap="round"/>
<path d="M33.488 6.67058H7.03656C6.4835 6.67058 6.03516 7.11892 6.03516 7.67198C6.03516 8.22504 6.4835 8.67338 7.03656 8.67338H33.488C34.041 8.67338 34.4894 8.22504 34.4894 7.67198C34.4894 7.11892 34.041 6.67058 33.488 6.67058Z" fill="#828282"/>
<path d="M10.805 11.7633C10.5082 12.3398 10.3545 12.9793 10.3571 13.6277V13.7661H7.03003C6.79564 13.7277 6.58253 13.6072 6.42875 13.4262C6.27498 13.2452 6.19055 13.0154 6.19055 12.7779C6.19055 12.5403 6.27498 12.3105 6.42875 12.1295C6.58253 11.9485 6.79564 11.828 7.03003 11.7896L10.805 11.7633Z" fill="#828282"/>
<path d="M10.3571 16.8493V18.8258H7.03003C6.79564 18.7874 6.58253 18.6669 6.42875 18.4859C6.27498 18.3049 6.19055 18.0751 6.19055 17.8376C6.19055 17.6 6.27498 17.3702 6.42875 17.1892C6.58253 17.0082 6.79564 16.8877 7.03003 16.8493H10.3571Z" fill="#828282"/>
<path d="M10.3571 21.9551V23.9316H7.03003C6.79564 23.8932 6.58253 23.7727 6.42875 23.5917C6.27498 23.4107 6.19055 23.1809 6.19055 22.9433C6.19055 22.7058 6.27498 22.476 6.42875 22.295C6.58253 22.114 6.79564 21.9935 7.03003 21.9551H10.3571Z" fill="#828282"/>
<path d="M10.3571 27.0347V29.0111H7.03003C6.79564 28.9727 6.58253 28.8523 6.42875 28.6713C6.27498 28.4902 6.19055 28.2604 6.19055 28.0229C6.19055 27.7854 6.27498 27.5556 6.42875 27.3746C6.58253 27.1936 6.79564 27.0731 7.03003 27.0347H10.3571Z" fill="#828282"/>
<path d="M10.3571 32.1208V34.0972H7.03003C6.79564 34.0588 6.58253 33.9383 6.42875 33.7573C6.27498 33.5763 6.19055 33.3465 6.19055 33.109C6.19055 32.8715 6.27498 32.6417 6.42875 32.4607C6.58253 32.2796 6.79564 32.1592 7.03003 32.1208H10.3571Z" fill="#828282"/>
<path d="M10.357 37.1804V39.1568H7.02994C6.80165 39.1109 6.59629 38.9874 6.44875 38.8073C6.30121 38.6271 6.22058 38.4015 6.22058 38.1686C6.22058 37.9358 6.30121 37.7101 6.44875 37.5299C6.59629 37.3498 6.80165 37.2263 7.02994 37.1804H10.357Z" fill="#828282"/>
</svg>
